<?xml version="1.0" encoding="utf-8"?>
<!-- Generator: Adobe Illustrator 24.0.0, SVG Export Plug-In . SVG Version: 6.00 Build 0)  -->
<svg version="1.1" id="Layer_1" xmlns="http://www.w3.org/2000/svg" xmlns:xlink="http://www.w3.org/1999/xlink" x="0px" y="0px"
	 viewBox="0 0 64 64" style="enable-background:new 0 0 64 64;" xml:space="preserve">
<style type="text/css">
	.st0{opacity:0.6;}
	.st1{fill:#FFFFFF;}
	.st2{fill:none;stroke:#FFFFFF;stroke-width:2;stroke-miterlimit:10;}
</style>
<g class="st0">
	<path class="st1" d="M32,10c12.1,0,22,9.9,22,22c0,12.1-9.9,22-22,22c-12.1,0-22-9.9-22-22c0-12.1,9.7-21.9,21.8-22H32 M32,8
		C18.7,8,8,18.7,8,32c0,13.3,10.7,24,24,24c13.3,0,24-10.7,24-24C56,18.7,45.3,8,32,8L32,8L32,8z"/>
</g>
<path class="st2" d="M43,42.6c-0.4,0.7-1.4,0.9-2.1,0.5c-5.6-3.4-12.7-4.2-21.1-2.3c-0.8,0.2-1.6-0.3-1.8-1.1
	c-0.2-0.8,0.3-1.6,1.1-1.8c9.1-2.1,17-1.2,23.3,2.7C43.2,41,43.4,41.9,43,42.6z"/>
<path class="st2" d="M45.9,36.1c-0.5,0.9-1.7,1.2-2.6,0.6c-6.5-4-16.3-5.1-23.9-2.8c-1,0.3-2-0.3-2.3-1.2c-0.3-1,0.3-2,1.2-2.3
	c8.7-2.6,19.6-1.4,27,3.2C46.2,34,46.5,35.2,45.9,36.1L45.9,36.1z"/>
<path class="st2" d="M46.2,29.3c-7.7-4.6-20.5-5-27.9-2.8c-1.2,0.4-2.4-0.3-2.8-1.5c-0.4-1.2,0.3-2.4,1.5-2.8
	c8.5-2.6,22.6-2.1,31.5,3.2c1.1,0.6,1.4,2,0.8,3.1C48.6,29.6,47.3,29.9,46.2,29.3L46.2,29.3z"/>
</svg>
