<?xml version="1.0" encoding="utf-8"?>
<!-- Generator: Adobe Illustrator 24.0.0, SVG Export Plug-In . SVG Version: 6.00 Build 0)  -->
<svg version="1.1" id="Layer_1" xmlns="http://www.w3.org/2000/svg" xmlns:xlink="http://www.w3.org/1999/xlink" x="0px" y="0px"
	 viewBox="0 0 64 64" style="enable-background:new 0 0 64 64;" xml:space="preserve">
<style type="text/css">
	.st0{opacity:0.6;}
	.st1{fill:#FFFFFF;}
</style>
<g id="rect8185" class="st0">
	<path class="st1" d="M54,18.3v2.1h-6.4v-2.1H54 M56,16.3H45.6v6.1H56V16.3L56,16.3z"/>
</g>
<g id="rect8192">
	<path class="st1" d="M54,26.8v2.1h-6.4v-2.1H54 M56,24.8H45.6v6.1H56V24.8L56,24.8z"/>
</g>
<g id="rect8199">
	<path class="st1" d="M54,35.2v2.1h-6.4v-2.1H54 M56,33.2H45.6v6.1H56V33.2L56,33.2z"/>
</g>
<g id="rect8206">
	<path class="st1" d="M16.4,43.6v2.1H10v-2.1H16.4 M18.4,41.6H8v6.1h10.4V41.6L18.4,41.6z"/>
</g>
<g id="rect8213">
	<path class="st1" d="M28.9,43.6v2.1h-6.4v-2.1H28.9 M30.9,41.6H20.5v6.1h10.4V41.6L30.9,41.6z"/>
</g>
<g id="rect8220">
	<path class="st1" d="M41.5,43.6v2.1h-6.4v-2.1H41.5 M43.5,41.6H33.1v6.1h10.4V41.6L43.5,41.6z"/>
</g>
<g id="rect8227">
	<path class="st1" d="M54,43.6v2.1h-6.4v-2.1H54 M56,41.6H45.6v6.1H56V41.6L56,41.6z"/>
</g>
<g id="rect8234" class="st0">
	<path class="st1" d="M41.5,35.2v2.1h-6.4v-2.1H41.5 M43.5,33.2H33.1v6.1h10.4V33.2L43.5,33.2z"/>
</g>
<g id="rect8241">
	<path class="st1" d="M28.9,35.2v2.1h-6.4v-2.1H28.9 M30.9,33.2H20.5v6.1h10.4V33.2L30.9,33.2z"/>
</g>
<g id="rect8248" class="st0">
	<path class="st1" d="M28.9,26.8v2.1h-6.4v-2.1H28.9 M30.9,24.8H20.5v6.1h10.4V24.8L30.9,24.8z"/>
</g>
</svg>
