<?xml version="1.0" encoding="utf-8"?>
<!-- Generator: Adobe Illustrator 24.0.0, SVG Export Plug-In . SVG Version: 6.00 Build 0)  -->
<svg version="1.1" id="Layer_1" xmlns="http://www.w3.org/2000/svg" xmlns:xlink="http://www.w3.org/1999/xlink" x="0px" y="0px"
	 viewBox="0 0 64 64" style="enable-background:new 0 0 64 64;" xml:space="preserve">
<style type="text/css">
	.st0{opacity:0.6;}
	.st1{fill:#FFFFFF;}
	.st2{opacity:0.6;fill:#FFFFFF;stroke:#FFFFFF;stroke-width:0.8;stroke-miterlimit:10;enable-background:new    ;}
	.st3{fill:#FFFFFF;stroke:#FFFFFF;stroke-width:0.8;stroke-miterlimit:10;}
</style>
<g id="icon-m-file-document" class="st0">
	<g>
		<rect x="22" y="26.6" class="st1" width="20" height="2"/>
		<rect x="21.9" y="35.5" class="st1" width="16" height="2"/>
		<rect x="22" y="17.6" class="st1" width="20" height="2"/>
	</g>
	<g class="st0">
		<path class="st1" d="M46,8H18c-2.2,0-4,1.8-4,4v40c0,2.2,1.8,4,4,4h17.3h1.2c-0.5-0.8-1.3-1.4-2.5-2h0H18c-1.1,0-2-0.9-2-2V12
			c0-1.1,0.9-2,2-2h28c1.1,0,2,0.9,2,2v23c0.7,0,1.3,0.4,2,1V12C50,9.8,48.2,8,46,8z"/>
	</g>
</g>
<g id="icon-m-file-audio">
	<rect x="49" y="35" transform="matrix(0.3371 -0.9415 0.9415 0.3371 -7.1028 74.7985)" class="st2" width="1.2" height="14.9"/>
	<path class="st3" d="M51.9,61.6c-0.9,0-1.8-0.3-2.4-0.9c-0.7-0.6-1-1.5-1-2.5c0-2.3,1.9-4.6,4.3-5.3c0.3-0.1,0.7-0.2,1.1-0.2
		c0.7,0,1.8,0.1,2.6,0.5V40.4c0-0.8-0.7-1.7-1.5-2l-11.1-3.9c-0.3-0.1-0.6-0.1-0.8,0c-0.2,0.1-0.3,0.4-0.3,0.6l0,15.5
		c0,2.3-1.9,4.6-4.3,5.3c-0.4,0.1-0.7,0.2-1,0.2c-1.1,0.1-2.1-0.2-2.8-0.9c-0.7-0.6-1-1.5-1-2.5c0-2.3,1.9-4.6,4.3-5.3
		c0.3-0.1,0.7-0.2,1.1-0.2c0.3,0,1.7,0,2.6,0.6l0-12.7c0-0.7,0.3-1.2,0.8-1.6c0.5-0.4,1.2-0.4,1.9-0.2l11.1,3.9
		c1.3,0.5,2.3,1.8,2.3,3.1v15.7c0,2.3-1.9,4.6-4.3,5.3c-0.3,0.1-0.7,0.2-1,0.2C52.2,61.6,52,61.6,51.9,61.6z M53.8,53.9
		c-0.2,0-0.5,0.1-0.7,0.1c-1.9,0.6-3.4,2.4-3.4,4.2c0,0.7,0.2,1.2,0.7,1.6c0.5,0.4,1.1,0.6,1.9,0.6c0.3,0,0.5-0.1,0.8-0.2
		c1.9-0.6,3.4-2.4,3.4-4.2c0,0,0-1.1,0-1.1c0-0.1-0.6-0.6-0.6-0.6C55.7,54.1,54.9,53.9,53.8,53.9z M39,48.5c-0.2,0-0.5,0.1-0.7,0.1
		c-1.9,0.6-3.4,2.4-3.4,4.2c0,0.7,0.2,1.2,0.7,1.6c0.5,0.4,1.1,0.6,1.9,0.6c0.3,0,0.5-0.1,0.8-0.2c1.9-0.6,3.4-2.4,3.4-4.2
		c0,0,0-1-0.1-1.2c-0.1-0.3-0.5-0.5-0.5-0.5C40.8,48.7,39.9,48.5,39,48.5z"/>
</g>
</svg>
