<?xml version="1.0" encoding="utf-8"?>
<!-- Generator: Adobe Illustrator 24.0.0, SVG Export Plug-In . SVG Version: 6.00 Build 0)  -->
<svg version="1.1" id="Layer_1" xmlns="http://www.w3.org/2000/svg" xmlns:xlink="http://www.w3.org/1999/xlink" x="0px" y="0px"
	 viewBox="0 0 64 64" style="enable-background:new 0 0 64 64;" xml:space="preserve">
<style type="text/css">
	.st0{fill:#FFFFFF;}
	.st1{opacity:0.6;}
</style>
<g id="icon-m-rotate">
	<g id="g119" transform="matrix(0.35277777,0,0,-0.35277777,79.736148,179.6705)">
		<g id="path121">
			<path class="st0" d="M-135.3,455.9l14.7-14.7l-14.7-14.7l-14.7,14.7L-135.3,455.9 M-135.3,463.9l-22.7-22.7l22.7-22.7l22.7,22.7
				L-135.3,463.9L-135.3,463.9z"/>
		</g>
	</g>
	<g id="g123" transform="matrix(0.35277777,0,0,-0.35277777,79.736148,183.00757)" class="st1">
		<g id="path125">
			<path class="st0" d="M-135.3,420l14.7-14.7l-14.7-14.7l-14.7,14.7L-135.3,420 M-135.3,428.1l-22.7-22.7l22.7-22.7l22.7,22.7
				L-135.3,428.1L-135.3,428.1z"/>
		</g>
	</g>
	<g id="g127" transform="matrix(0.35277777,0,0,-0.35277777,76.39926,179.67064)">
		<g id="path129">
			<path class="st0" d="M-171.2,455.9l14.7-14.7l-14.7-14.7l-14.7,14.7L-171.2,455.9 M-171.2,463.9l-22.7-22.7l22.7-22.7l22.7,22.7
				L-171.2,463.9L-171.2,463.9z"/>
		</g>
	</g>
	<g id="g131" transform="matrix(0.35277777,0,0,-0.35277777,83.072861,179.67064)">
		<g id="path133">
			<path class="st0" d="M-99.4,455.9l14.7-14.7l-14.7-14.7l-14.7,14.7L-99.4,455.9 M-99.4,463.9l-22.7-22.7l22.7-22.7l22.7,22.7
				L-99.4,463.9L-99.4,463.9z"/>
		</g>
	</g>
</g>
</svg>
